<?xml version="1.0" encoding="UTF-8" standalone="no"?>
<!DOCTYPE svg PUBLIC "-//W3C//DTD SVG 1.1//EN" "http://www.w3.org/Graphics/SVG/1.1/DTD/svg11.dtd">
<svg width="100%" height="100%" viewBox="0 0 512 512" version="1.1" xmlns="http://www.w3.org/2000/svg" xmlns:xlink="http://www.w3.org/1999/xlink" xml:space="preserve" xmlns:serif="http://www.serif.com/" style="fill-rule:evenodd;clip-rule:evenodd;stroke-linejoin:round;stroke-miterlimit:2;">
    <g transform="matrix(1.03009,0,0,1.03009,-10.108,-5.73933)">
        <rect x="27.583" y="227.971" width="462.484" height="54.38"/>
        <path d="M25.616,230.079C37.656,112.229 137.328,20.155 258.335,20.155C379.342,20.155 479.014,112.229 491.054,230.079L25.616,230.079Z" style="fill:rgb(239,65,57);"/>
        <g transform="matrix(0.689633,-0.6663,0.824208,0.85307,29.946,252.761)">
            <ellipse cx="361.297" cy="125.638" rx="26.023" ry="55.558" style="fill:white;"/>
        </g>
        <g transform="matrix(1,0,0,-1,0.306526,508.11)">
            <path d="M25.616,230.079C37.656,112.229 137.328,20.155 258.335,20.155C379.342,20.155 479.014,112.229 491.054,230.079L25.616,230.079Z" style="fill:white;"/>
        </g>
        <g transform="matrix(1.01902,0,0,1.01902,-4.91231,-6.10265)">
            <path d="M258.335,11.456C392.939,11.456 502.22,120.738 502.22,255.341C502.22,389.945 392.939,499.226 258.335,499.226C123.731,499.226 14.45,389.945 14.45,255.341C14.45,120.738 123.731,11.456 258.335,11.456ZM258.335,40.079C139.529,40.079 43.073,136.535 43.073,255.341C43.073,374.148 139.529,470.604 258.335,470.604C377.142,470.604 473.598,374.148 473.598,255.341C473.598,136.535 377.142,40.079 258.335,40.079Z"/>
        </g>
        <g transform="matrix(0.335643,0,0,0.335643,172.648,169.157)">
            <circle cx="258.335" cy="255.341" r="229.574" style="fill:white;"/>
        </g>
        <g transform="matrix(0.335643,0,0,0.335643,172.648,169.157)">
            <path d="M258.335,-14.578C407.308,-14.578 528.254,106.369 528.254,255.341C528.254,404.314 407.308,525.26 258.335,525.26C109.363,525.26 -11.584,404.314 -11.584,255.341C-11.584,106.369 109.363,-14.578 258.335,-14.578ZM258.335,66.113C153.897,66.113 69.107,150.903 69.107,255.341C69.107,359.779 153.897,444.57 258.335,444.57C362.773,444.57 447.563,359.779 447.563,255.341C447.563,150.903 362.773,66.113 258.335,66.113Z"/>
        </g>
        <g transform="matrix(0.193667,0,0,0.193667,208.917,205)">
            <path d="M258.335,-1.126C399.883,-1.126 514.802,113.793 514.802,255.341C514.802,396.889 399.883,511.808 258.335,511.808C116.787,511.808 1.868,396.889 1.868,255.341C1.868,113.793 116.787,-1.126 258.335,-1.126ZM258.335,52.661C146.473,52.661 55.655,143.479 55.655,255.341C55.655,367.204 146.473,458.022 258.335,458.022C370.198,458.022 461.016,367.204 461.016,255.341C461.016,143.479 370.198,52.661 258.335,52.661Z"/>
        </g>
    </g>
</svg>
