<?xml version="1.0" encoding="UTF-8" standalone="no"?>
<!DOCTYPE svg PUBLIC "-//W3C//DTD SVG 1.1//EN" "http://www.w3.org/Graphics/SVG/1.1/DTD/svg11.dtd">
<svg width="100%" height="100%" viewBox="0 0 512 512" version="1.1" xmlns="http://www.w3.org/2000/svg" xmlns:xlink="http://www.w3.org/1999/xlink" xml:space="preserve" xmlns:serif="http://www.serif.com/" style="fill-rule:evenodd;clip-rule:evenodd;stroke-linejoin:round;stroke-miterlimit:2;">
    <circle cx="256" cy="256" r="256" style="fill:rgb(218,124,77);"/>
    <g transform="matrix(0.726714,0,0,0.726714,69.961,62.9918)">
        <path d="M112.764,439.754C112.625,439.754 112.528,439.617 112.574,439.486L243.289,70.134C243.318,70.054 243.394,70 243.479,70L383.021,70C383.106,70 383.183,70.054 383.211,70.135L511.987,439.487C512.032,439.618 511.935,439.754 511.797,439.754L112.764,439.754ZM0.201,441.199C0.061,441.199 -0.036,441.059 0.013,440.928L97.353,181.056C97.382,180.977 97.457,180.925 97.541,180.925L182.118,180.925C182.258,180.925 182.355,181.064 182.307,181.195L88.182,441.067C88.153,441.146 88.078,441.199 87.993,441.199L0.201,441.199Z" style="fill:white;"/>
    </g>
</svg>
