<?xml version="1.0" encoding="UTF-8" standalone="no"?>
<!DOCTYPE svg PUBLIC "-//W3C//DTD SVG 1.1//EN" "http://www.w3.org/Graphics/SVG/1.1/DTD/svg11.dtd">
<svg width="100%" height="100%" viewBox="0 0 512 512" version="1.1" xmlns="http://www.w3.org/2000/svg" xmlns:xlink="http://www.w3.org/1999/xlink" xml:space="preserve" xmlns:serif="http://www.serif.com/" style="fill-rule:evenodd;clip-rule:evenodd;stroke-linejoin:round;stroke-miterlimit:2;">
    <circle cx="256" cy="256" r="256" style="fill:rgb(117,208,193);"/>
    <g transform="matrix(0.765334,0,0,0.765334,59.9956,60.2206)">
        <path d="M384.304,39.042L385.879,177.392L265.209,235.319L263.721,104.69L384.304,39.042Z" style="fill:white;"/>
    </g>
    <g transform="matrix(0.765334,0,0,0.765334,59.9956,60.2206)">
        <path d="M505.269,257.047L385.814,325.374L266.288,256.939L385.752,194.187L505.269,257.047Z" style="fill:white;"/>
    </g>
    <g transform="matrix(0.765334,0,0,0.765334,59.9956,60.2206)">
        <path d="M245.04,257.047L125.585,325.374L6.059,256.939L125.523,194.187L245.04,257.047Z" style="fill:white;"/>
    </g>
    <g transform="matrix(0.765334,0,0,0.765334,59.9956,60.2206)">
        <path d="M124.243,38.475L248.229,99.881L245.059,233.697L127.993,175.719L124.243,38.475Z" style="fill:white;"/>
    </g>
    <g transform="matrix(0.765334,0,0,0.765334,59.9956,60.2206)">
        <path d="M387.678,473.525L263.692,412.119L266.862,278.302L383.928,336.281L387.678,473.525Z" style="fill:white;"/>
    </g>
    <g transform="matrix(0.765334,0,0,0.765334,59.9956,60.2206)">
        <path d="M128.525,474.77L126.949,336.42L247.62,278.493L249.108,409.121L128.525,474.77Z" style="fill:white;"/>
    </g>
</svg>
