<?xml version="1.0" encoding="UTF-8" standalone="no"?>
<!DOCTYPE svg PUBLIC "-//W3C//DTD SVG 1.1//EN" "http://www.w3.org/Graphics/SVG/1.1/DTD/svg11.dtd">
<svg width="100%" height="100%" viewBox="0 0 512 512" version="1.1" xmlns="http://www.w3.org/2000/svg" xmlns:xlink="http://www.w3.org/1999/xlink" xml:space="preserve" xmlns:serif="http://www.serif.com/" style="fill-rule:evenodd;clip-rule:evenodd;stroke-linejoin:round;stroke-miterlimit:2;">
    <circle cx="256" cy="256" r="256" style="fill:rgb(242,217,78);"/>
    <g transform="matrix(0.696922,0,0,0.696922,54.4145,86.683)">
        <path d="M152.56,0.584C152.461,0.298 152.674,0 152.976,0L332.805,0C332.998,0 333.169,0.126 333.226,0.31L415.824,267.171C415.911,267.454 415.7,267.741 415.403,267.741L295.684,267.741C295.538,267.741 295.433,267.88 295.473,268.021L364.135,509.726C364.269,510.195 363.654,510.501 363.361,510.111L96.53,155.267C96.312,154.977 96.518,154.563 96.881,154.563L205.536,154.563C205.687,154.563 205.793,154.414 205.743,154.271L152.56,0.584Z" style="fill:white;"/>
    </g>
</svg>
