<?xml version="1.0" encoding="UTF-8" standalone="no"?>
<!DOCTYPE svg PUBLIC "-//W3C//DTD SVG 1.1//EN" "http://www.w3.org/Graphics/SVG/1.1/DTD/svg11.dtd">
<svg width="100%" height="100%" viewBox="0 0 512 512" version="1.1" xmlns="http://www.w3.org/2000/svg" xmlns:xlink="http://www.w3.org/1999/xlink" xml:space="preserve" xmlns:serif="http://www.serif.com/" style="fill-rule:evenodd;clip-rule:evenodd;stroke-linejoin:round;stroke-miterlimit:2;">
    <circle cx="256" cy="256" r="256" style="fill:rgb(201,187,138);"/>
    <g transform="matrix(0.671146,0,0,0.671146,84.0321,84.0422)">
        <path d="M395.138,244.757C395.109,244.717 395.097,244.667 395.105,244.618L427.769,54.152C427.784,54.064 427.861,54 427.949,54L438.287,54C438.367,54 438.437,54.052 438.461,54.128L512.051,287.131C512.074,287.203 512.049,287.283 511.989,287.33L457.73,329.693C457.649,329.756 457.532,329.74 457.471,329.657L395.138,244.757ZM-1,371.022C-1,371.101 -0.949,371.171 -0.874,371.196L110.975,407.767C111.029,407.785 111.089,407.776 111.136,407.744L361.145,235.144C361.187,235.115 361.215,235.07 361.222,235.02L388.032,55.128C388.049,55.018 387.963,54.919 387.852,54.919L166.406,54.919C166.351,54.919 166.3,54.943 166.265,54.985L-0.958,256.714C-0.985,256.747 -1,256.788 -1,256.831L-1,371.022ZM157.583,417.085L279.776,457.112C279.831,457.13 279.892,457.121 279.939,457.087L425.418,352.734C425.499,352.677 425.519,352.566 425.464,352.484L370.928,271.329C370.871,271.244 370.757,271.222 370.673,271.28L157.583,417.085Z" style="fill:white;"/>
    </g>
</svg>
