<?xml version="1.0" encoding="UTF-8" standalone="no"?>
<!DOCTYPE svg PUBLIC "-//W3C//DTD SVG 1.1//EN" "http://www.w3.org/Graphics/SVG/1.1/DTD/svg11.dtd">
<svg width="100%" height="100%" viewBox="0 0 512 512" version="1.1" xmlns="http://www.w3.org/2000/svg" xmlns:xlink="http://www.w3.org/1999/xlink" xml:space="preserve" xmlns:serif="http://www.serif.com/" style="fill-rule:evenodd;clip-rule:evenodd;stroke-linejoin:round;stroke-miterlimit:2;">
    <circle cx="256" cy="256" r="256" style="fill:rgb(183,99,207);"/>
    <g transform="matrix(0.669915,0,0,0.669915,84.5018,84.5018)">
        <path d="M427.821,393.449C479.524,352.108 512,292.376 512,225.95C512,101.161 397.385,0 256,0C114.615,0 0,101.161 0,225.95C0,289.978 30.174,347.786 78.655,388.901C75.717,399.046 74.105,410.081 74.105,421.62C74.105,471.535 104.267,512 141.474,512C165.65,512 186.852,494.915 198.737,469.254C210.622,494.915 231.824,512 256,512C278.038,512 297.604,497.804 309.895,475.857C322.186,497.804 341.752,512 363.789,512C400.996,512 431.158,471.535 431.158,421.62C431.158,411.784 429.986,402.314 427.821,393.449ZM404.211,230.431C404.211,293.785 336.346,345.144 252.632,345.144C168.917,345.144 101.053,293.785 101.053,230.431C101.053,167.077 168.917,115.718 252.632,115.718C336.346,115.718 404.211,167.077 404.211,230.431Z" style="fill:white;"/>
    </g>
</svg>
