<?xml version="1.0" encoding="UTF-8" standalone="no"?>
<!DOCTYPE svg PUBLIC "-//W3C//DTD SVG 1.1//EN" "http://www.w3.org/Graphics/SVG/1.1/DTD/svg11.dtd">
<svg width="100%" height="100%" viewBox="0 0 512 512" version="1.1" xmlns="http://www.w3.org/2000/svg" xmlns:xlink="http://www.w3.org/1999/xlink" xml:space="preserve" xmlns:serif="http://www.serif.com/" style="fill-rule:evenodd;clip-rule:evenodd;stroke-linejoin:round;stroke-miterlimit:2;">
    <circle cx="256" cy="256" r="256" style="fill:rgb(211,66,95);"/>
    <g transform="matrix(0.650389,0,0,0.650389,89.4772,89.5005)">
        <path d="M88.234,42.566C94.43,18.101 116.593,0 142.983,0C162.778,0 180.195,10.185 190.279,25.6L206.792,25.6C217.051,15.072 231.384,8.533 247.245,8.533C270.499,8.533 290.471,22.588 299.129,42.667L312.954,42.667C321.617,37.259 331.853,34.133 342.818,34.133C366.073,34.133 386.044,48.188 394.702,68.267L432.297,68.267C432.618,68.267 432.919,68.353 433.178,68.504C434.895,68.347 436.634,68.267 438.391,68.267C469.582,68.267 494.866,93.551 494.866,124.742L494.866,294.086L494.867,294.4L494.866,294.714L494.866,297.153C494.866,298.186 494.838,299.215 494.782,300.239C491.384,417.717 385.749,512 255.933,512C123.974,512 17,414.577 17,294.4C17,236.391 41.925,183.683 82.554,144.675C82.498,175.599 82.759,207.095 83.726,229.127C84.528,247.386 83.666,258.879 87.811,258.691C92.701,258.469 92.342,246.923 93.118,229.981C95.494,178.08 89.859,71.421 88.234,42.566Z" style="fill:white;"/>
    </g>
</svg>
