<?xml version="1.0" encoding="UTF-8" standalone="no"?>
<!DOCTYPE svg PUBLIC "-//W3C//DTD SVG 1.1//EN" "http://www.w3.org/Graphics/SVG/1.1/DTD/svg11.dtd">
<svg width="100%" height="100%" viewBox="0 0 512 512" version="1.1" xmlns="http://www.w3.org/2000/svg" xmlns:xlink="http://www.w3.org/1999/xlink" xml:space="preserve" xmlns:serif="http://www.serif.com/" style="fill-rule:evenodd;clip-rule:evenodd;stroke-linejoin:round;stroke-miterlimit:2;">
    <circle cx="256" cy="256" r="256" style="fill:rgb(160,162,159);"/>
    <g transform="matrix(0.671555,0,0,0.671555,84.0819,84.0819)">
        <path d="M481,256C481,380.264 380.264,481 256,481C131.736,481 31,380.264 31,256C31,131.736 131.736,31 256,31C380.264,31 481,131.736 481,256ZM384.571,256C384.571,327.008 327.008,384.571 256,384.571C184.992,384.571 127.429,327.008 127.429,256C127.429,184.992 184.992,127.429 256,127.429C327.008,127.429 384.571,184.992 384.571,256Z" style="fill:white;"/>
    </g>
</svg>
