<?xml version="1.0" encoding="UTF-8" standalone="no"?>
<!DOCTYPE svg PUBLIC "-//W3C//DTD SVG 1.1//EN" "http://www.w3.org/Graphics/SVG/1.1/DTD/svg11.dtd">
<svg width="100%" height="100%" viewBox="0 0 512 512" version="1.1" xmlns="http://www.w3.org/2000/svg" xmlns:xlink="http://www.w3.org/1999/xlink" xml:space="preserve" xmlns:serif="http://www.serif.com/" style="fill-rule:evenodd;clip-rule:evenodd;stroke-linejoin:round;stroke-miterlimit:2;">
    <circle cx="256" cy="256" r="256" style="fill:rgb(86,149,163);"/>
    <g transform="matrix(0.697166,0,0,0.697166,77.5253,76.9849)">
        <path d="M0.051,254.527C-0.017,254.411 -0.017,254.267 0.051,254.15L128.795,34.184C128.862,34.07 128.985,34 129.117,34L384.294,34C384.427,34 384.55,34.071 384.617,34.186L511.949,254.152C512.016,254.267 512.016,254.41 511.949,254.525L384.617,474.244C384.55,474.359 384.427,474.43 384.294,474.43L129.117,474.43C128.985,474.43 128.862,474.36 128.795,474.246L0.051,254.527ZM374.617,254.215C374.617,319.703 321.528,372.792 256.04,372.792C190.552,372.792 137.463,319.703 137.463,254.215C137.463,188.726 190.552,135.638 256.04,135.638C321.528,135.638 374.617,188.726 374.617,254.215Z" style="fill:white;"/>
    </g>
</svg>
