<?xml version="1.0" encoding="UTF-8" standalone="no"?>
<!DOCTYPE svg PUBLIC "-//W3C//DTD SVG 1.1//EN" "http://www.w3.org/Graphics/SVG/1.1/DTD/svg11.dtd">
<svg width="100%" height="100%" viewBox="0 0 512 512" version="1.1" xmlns="http://www.w3.org/2000/svg" xmlns:xlink="http://www.w3.org/1999/xlink" xml:space="preserve" xmlns:serif="http://www.serif.com/" style="fill-rule:evenodd;clip-rule:evenodd;stroke-linejoin:round;stroke-miterlimit:2;">
    <circle cx="256" cy="256" r="256" style="fill:rgb(83,157,223);"/>
    <g transform="matrix(0.738779,0,0,0.738779,66.8949,66.8695)">
        <path d="M422.172,346.515C422.172,437.897 347.813,511.977 256.086,511.977C164.359,511.977 90,437.897 90,346.515C90,257.639 247.102,13.548 255.718,0.228C255.915,-0.076 256.258,-0.076 256.454,0.228C265.07,13.548 422.172,257.639 422.172,346.515ZM228.4,458.931C144.12,440.49 158.542,347.13 158.542,347.13C158.542,347.13 181.556,403.488 237.405,421.744C293.253,439.999 360.745,413.225 360.745,413.225C360.745,413.225 312.68,477.371 228.4,458.931Z" style="fill:white;"/>
    </g>
</svg>
